<svg version="1.1" id="Layer_1" xmlns="http://www.w3.org/2000/svg" xmlns:xlink="http://www.w3.org/1999/xlink" x="0px" y="0px"
	 width="100%" viewBox="59 24 372 347" xml:space="preserve">
<defs>
	<linearGradient id="grad2" x1="0%" y1="0%" x2="0%" y2="100%">
		<stop offset="0%" style="stop-color:#6366f1;stop-opacity:1" />
		<stop offset="50%" style="stop-color:#0ea5e9;stop-opacity:1" />
		<stop offset="100%" style="stop-color:#10b981;stop-opacity:1" />
	</linearGradient>
</defs>
<rect x="60" y="25" width="370" height="345" rx="50" fill="url(#grad2)" />
<path fill="#FFFFFF" opacity="1.000000" stroke="none" 
	d="
M222.318619,39.424503 
	C209.809021,36.050835 209.417725,39.431305 204.902710,47.023937 
	C192.844650,67.301201 180.654526,87.500290 168.442169,107.685234 
	C163.154861,116.424210 163.418686,118.237564 170.048798,126.027954 
	C173.945450,130.606537 178.482086,134.790466 181.418228,140.807068 
	C165.961624,144.722610 151.041260,148.580566 136.069412,152.227158 
	C133.173157,152.932571 130.875137,154.188766 128.811829,156.257919 
	C110.924713,174.195908 93.066391,192.163773 75.027412,209.948196 
	C71.619736,213.307800 70.800034,216.661331 71.992599,221.150970 
	C80.343292,252.588562 88.560852,284.061462 96.840454,315.517975 
	C100.176399,328.192169 103.600533,340.843231 106.898605,353.527161 
	C107.827759,357.100586 109.889648,359.825806 113.445610,360.223480 
	C116.870163,360.606476 119.230865,358.077606 120.817581,355.155029 
	C121.847008,353.258942 122.723183,351.275330 123.595909,349.299103 
	C130.643616,333.340149 137.736542,317.400543 144.664749,301.389771 
	C146.333344,297.533722 148.747971,295.074524 153.040756,294.737183 
	C157.670303,294.373322 162.303070,294.042542 166.927017,293.616699 
	C180.455658,292.370972 194.006363,291.306274 207.497650,289.734772 
	C216.052078,288.738373 217.975647,289.289612 222.195267,296.327148 
	C234.145035,316.257141 246.125488,336.168793 258.076324,356.098175 
	C259.626617,358.683441 261.623169,360.685028 264.832642,360.261963 
	C268.208588,359.816925 270.706207,358.048523 271.429962,354.419495 
	C271.786926,352.629486 272.267303,350.863586 272.607544,349.070801 
	C277.552490,323.016754 282.515778,296.966125 287.400787,270.900848 
	C289.324768,260.634949 291.082703,250.337723 292.882751,240.048904 
	C293.583435,236.043762 292.013733,233.036469 288.173401,231.856293 
	C284.187408,230.631378 281.498138,232.980103 279.629486,236.238068 
	C278.985870,237.360168 278.717163,238.742599 278.474915,240.042938 
	C273.103577,268.874359 267.747620,297.708618 262.441162,326.552032 
	C262.114990,328.325104 261.807587,329.972778 260.552216,331.206268 
	C258.644836,330.179413 258.000671,328.648926 257.141876,327.217804 
	C247.574265,311.273834 237.873962,295.408997 228.388626,279.416534 
	C225.754318,274.975006 222.109146,274.077972 217.392090,274.573669 
	C204.207230,275.959229 191.004944,277.182343 177.803864,278.408691 
	C166.244247,279.482544 154.669510,280.398895 143.117752,281.548523 
	C139.761551,281.882568 137.215729,283.900085 135.819595,286.985779 
	C131.576736,296.363373 127.612007,305.870758 123.191223,315.162170 
	C120.983437,319.802460 119.766441,325.041138 115.827873,329.739838 
	C114.892410,327.630524 114.115326,326.368073 113.755882,324.996185 
	C104.883362,291.132996 96.088661,257.249359 87.166275,223.399353 
	C86.287239,220.064484 87.051735,217.737534 89.435127,215.367554 
	C105.032272,199.858276 120.541893,184.260910 136.061279,168.673569 
	C137.736176,166.991333 139.541214,165.874512 141.962311,165.291122 
	C156.483551,161.792145 171.017273,158.311249 185.409698,154.328766 
	C190.729355,152.856796 193.979507,154.205887 197.342789,158.335098 
	C210.341660,174.294174 223.587265,190.053513 236.841629,205.802551 
	C241.046234,210.798508 244.862885,210.927307 249.532043,206.414062 
	C254.683853,201.434280 259.679596,196.293076 264.744385,191.223221 
	C275.462799,180.494125 286.203735,169.787384 296.881927,159.018402 
	C298.969727,156.912872 301.181030,154.800552 300.002655,151.221680 
	C297.884857,144.789490 292.574738,143.656036 287.365784,148.815582 
	C274.459778,161.599228 261.656006,174.485992 248.788681,187.308807 
	C243.846497,192.233902 243.303070,192.037537 238.893661,186.638550 
	C229.761566,175.457016 220.443130,164.427841 211.223572,153.317551 
	C201.687973,141.826385 192.224869,130.274597 182.618851,118.842766 
	C180.707840,116.568535 180.561646,114.808601 182.144760,112.212669 
	C193.393661,93.767365 204.558258,75.269119 215.539307,56.663563 
	C217.273285,53.725605 219.234695,53.286808 222.102509,53.967007 
	C256.635712,62.157745 291.155518,70.406624 325.729584,78.421326 
	C330.031403,79.418541 332.048950,81.681519 333.545197,85.583801 
	C338.418243,98.292587 343.700867,110.843597 348.667206,123.517487 
	C353.975159,137.063126 360.313019,150.245544 361.810425,165.072342 
	C362.438416,171.290863 364.178253,177.447693 365.932800,183.481308 
	C366.863403,186.681503 369.533264,189.039978 373.198456,187.995117 
	C376.757019,186.980621 379.961823,184.257446 379.303741,180.441437 
	C377.193390,168.203339 375.738953,155.610352 371.619354,144.010956 
	C363.127258,120.100182 353.054474,96.751678 343.685577,73.150574 
	C342.156281,69.298149 339.765076,66.950432 335.481934,66.121231 
	C328.812317,64.830025 322.253967,62.970608 315.636444,61.402710 
	C284.806641,54.098148 253.972717,46.811008 222.318619,39.424503 
M343.345154,345.827881 
	C348.906097,345.595184 350.354248,341.559387 351.306396,337.136902 
	C358.006134,306.018951 364.719543,274.903839 371.315979,243.763947 
	C371.924286,240.892212 372.413849,237.719055 370.631714,235.022217 
	C369.209991,232.870804 367.022125,231.170456 364.358978,231.677338 
	C360.278290,232.454056 358.380066,235.635956 357.557861,239.449997 
	C354.134796,255.328217 350.780579,271.221252 347.356598,287.099274 
	C344.421783,300.708893 341.267090,314.273743 338.549377,327.926025 
	C337.668549,332.351074 334.713501,331.126617 332.099976,331.295624 
	C329.042206,331.493378 328.772675,329.502533 328.604858,327.091705 
	C327.695526,314.028442 326.526794,300.982208 325.714508,287.913513 
	C324.859955,274.164368 324.811096,260.345184 323.419647,246.657318 
	C322.664276,239.226532 323.474335,231.711227 321.728638,224.352234 
	C320.563171,219.439026 318.276001,217.047928 314.289368,217.504227 
	C310.304932,217.960251 306.953888,221.279388 307.609192,225.432159 
	C308.475159,230.919632 308.085907,236.384003 308.465729,241.843719 
	C309.742706,260.199890 311.139160,278.548187 312.321228,296.910370 
	C313.163391,309.991974 313.620636,323.098389 314.471008,336.179382 
	C314.943695,343.451141 317.132965,345.936340 324.128998,346.436096 
	C330.241516,346.872742 336.434814,347.109985 343.345154,345.827881 
M294.590210,192.058960 
	C292.604767,197.453339 294.383118,201.219131 299.969055,202.512741 
	C317.716888,206.622833 335.472748,210.710419 353.292694,214.489822 
	C358.375488,215.567825 363.411224,217.860229 368.914490,215.990143 
	C382.429443,211.397568 395.999298,206.966156 409.558289,202.504013 
	C411.928070,201.724136 413.727203,200.377014 414.427185,197.935776 
	C415.150696,195.412323 415.115448,192.788254 413.066956,190.951675 
	C410.778381,188.899918 408.159027,187.914673 404.820190,189.064163 
	C392.578705,193.278641 380.261078,197.272171 367.967346,201.334473 
	C366.085510,201.956284 364.273438,202.531662 362.150146,202.049927 
	C342.915771,197.686111 323.637360,193.514175 304.425903,189.053268 
	C300.620209,188.169586 297.562897,188.389008 294.590210,192.058960 
M314.376373,130.553421 
	C314.283661,133.537018 314.568695,136.444305 315.296417,139.379120 
	C316.196930,143.010895 318.533783,144.840073 321.940643,144.963013 
	C325.188080,145.080170 327.639771,143.313293 328.597107,140.047226 
	C330.413055,133.851837 330.108368,127.612984 328.367249,121.489471 
	C327.496155,118.425720 324.901062,117.081512 321.828552,117.167084 
	C318.757782,117.252609 316.392151,118.748192 315.538635,121.848030 
	C314.840942,124.381828 314.063934,126.943909 314.376373,130.553421 
z"/>
</svg>